<svg xmlns="http://www.w3.org/2000/svg" width="174" height="383" viewBox="0 0 174 383"><rect width="100%" height="100%" fill="#808080"/><path fill="#000000" d="M43.415 197.685h2.99v2.13h-9.2v-2.13h3.37v-9.69q0-.58.04-1.19l-2.39 2q-.21.17-.41.21-.2.04-.38 0-.18-.03-.32-.12t-.21-.19l-.89-1.23 5.07-4.31h2.33v14.52Zm5.5-14.5h11.49v1.23q0 .55-.12.89-.11.34-.23.57l-6.3 12.97q-.19.41-.55.69-.36.28-.95.28h-2.06l6.43-12.71q.21-.39.43-.72.21-.32.47-.62h-7.95q-.27 0-.46-.2-.2-.19-.2-.46v-1.92Zm15.4 10.36h5.06v-5.44q0-.77.1-1.7l-5.16 7.14Zm7.53 0h2.09v1.65q0 .23-.15.39-.14.17-.42.17h-1.52v4.06h-2.47v-4.06h-7.02q-.28 0-.5-.18-.22-.18-.28-.44l-.3-1.44 7.88-10.52h2.69v10.37Zm20.37 2.46-1.51 1.49-3.9-3.9-3.93 3.92-1.51-1.48 3.94-3.95-3.75-3.75 1.49-1.49 3.75 3.75 3.73-3.73 1.52 1.5-3.74 3.73 3.91 3.91Zm9.57-7.92-1.5-.26q.17-1.2.67-2.1.49-.91 1.23-1.51.75-.6 1.71-.91.96-.3 2.06-.3 1.15 0 2.08.32.92.33 1.58.91.65.58 1 1.37.35.78.35 1.69 0 .79-.17 1.39-.18.61-.52 1.06-.33.44-.82.76-.5.31-1.12.51 1.5.47 2.23 1.44.74.97.74 2.43 0 1.24-.46 2.19-.46.96-1.24 1.61-.79.65-1.82.98-1.02.33-2.17.33-1.26 0-2.19-.28-.93-.29-1.62-.85-.69-.57-1.17-1.38-.49-.82-.83-1.89l1.25-.52q.5-.21.93-.11.43.1.62.47.21.4.46.79t.59.7q.35.3.81.49.47.19 1.11.19.73 0 1.27-.23.54-.24.9-.62t.54-.84q.18-.47.18-.94 0-.6-.13-1.09-.13-.49-.53-.83-.4-.35-1.15-.54-.76-.2-2.02-.2v-2.02q1.04-.01 1.73-.2.69-.18 1.1-.51.41-.33.57-.79.16-.46.16-1.01 0-1.17-.65-1.78-.66-.61-1.75-.61-.51 0-.93.14-.43.15-.77.41-.34.25-.57.6-.23.34-.34.76-.2.53-.51.7-.32.17-.89.08Zm17.27 9.69q.7 0 1.23-.2t.89-.55q.36-.36.55-.86.18-.49.18-1.06 0-1.37-.76-2.08-.76-.7-2.09-.7-1.34 0-2.09.7-.76.71-.76 2.08 0 .57.18 1.06.18.5.55.86.36.35.89.55.53.2 1.23.2Zm0-12.63q-.63 0-1.09.19-.46.2-.77.52-.3.33-.45.76-.14.42-.14.9 0 .49.12.96.12.46.41.82.29.37.76.58.47.22 1.16.22t1.16-.22q.47-.21.76-.58.29-.36.41-.82.12-.47.12-.96 0-.48-.15-.9-.15-.43-.45-.76-.3-.32-.76-.52-.46-.19-1.09-.19Zm2.8 6q1.52.49 2.25 1.51.72 1.02.72 2.49 0 1.11-.42 2-.42.9-1.18 1.53t-1.82.98q-1.06.34-2.35.34t-2.35-.34q-1.07-.35-1.83-.98-.75-.63-1.17-1.53-.42-.89-.42-2 0-1.47.72-2.49.72-1.02 2.24-1.51-1.2-.51-1.81-1.44-.6-.93-.6-2.24 0-.94.38-1.76.39-.82 1.08-1.42.69-.6 1.65-.94.96-.34 2.11-.34t2.11.34q.96.34 1.65.94.69.6 1.07 1.42.39.82.39 1.76 0 1.31-.6 2.24-.61.93-1.82 1.44Zm6.61-3.06-1.5-.26q.17-1.2.67-2.1.49-.91 1.23-1.51.75-.6 1.71-.91.96-.3 2.06-.3 1.15 0 2.08.32.92.33 1.58.91.65.58 1 1.37.35.78.35 1.69 0 .79-.17 1.39-.18.61-.52 1.06-.33.44-.82.76-.5.31-1.12.51 1.5.47 2.23 1.44.74.97.74 2.43 0 1.24-.46 2.19-.46.96-1.24 1.61-.79.65-1.82.98-1.02.33-2.17.33-1.26 0-2.19-.28-.93-.29-1.62-.85-.69-.57-1.17-1.38-.49-.82-.83-1.89l1.25-.52q.5-.21.93-.11.43.1.62.47.21.4.46.79t.59.7q.35.3.81.49.47.19 1.11.19.73 0 1.27-.23.54-.24.9-.62t.54-.84q.18-.47.18-.94 0-.6-.13-1.09-.13-.49-.53-.83-.4-.35-1.15-.54-.76-.2-2.02-.2v-2.02q1.04-.01 1.73-.2.69-.18 1.1-.51.41-.33.57-.79.16-.46.16-1.01 0-1.17-.65-1.78-.66-.61-1.75-.61-.51 0-.93.14-.43.15-.77.41-.34.25-.57.6-.23.34-.34.76-.2.53-.51.7-.32.17-.89.08Z"/></svg>